<?xml version="1.0" encoding="UTF-8" standalone="no"?>
<!-- Created with Inkscape (http://www.inkscape.org/) -->

<svg
   width="388.40686mm"
   height="146.69897mm"
   viewBox="0 0 388.40686 146.69897"
   version="1.1"
   id="svg1"
   xml:space="preserve"
   inkscape:version="1.3.2 (091e20e, 2023-11-25, custom)"
   sodipodi:docname="logo_oficial.svg"
   xmlns:inkscape="http://www.inkscape.org/namespaces/inkscape"
   xmlns:sodipodi="http://sodipodi.sourceforge.net/DTD/sodipodi-0.dtd"
   xmlns:xlink="http://www.w3.org/1999/xlink"
   xmlns="http://www.w3.org/2000/svg"
   xmlns:svg="http://www.w3.org/2000/svg"><sodipodi:namedview
     id="namedview1"
     pagecolor="#ffffff"
     bordercolor="#000000"
     borderopacity="0.25"
     inkscape:showpageshadow="2"
     inkscape:pageopacity="0.0"
     inkscape:pagecheckerboard="0"
     inkscape:deskcolor="#d1d1d1"
     inkscape:document-units="mm"
     inkscape:zoom="0.72782688"
     inkscape:cx="794.14489"
     inkscape:cy="215.02366"
     inkscape:window-width="1920"
     inkscape:window-height="1094"
     inkscape:window-x="-11"
     inkscape:window-y="-11"
     inkscape:window-maximized="1"
     inkscape:current-layer="layer1" /><defs
     id="defs1"><pattern
       inkscape:collect="always"
       xlink:href="#pattern1"
       preserveAspectRatio="xMidYMid"
       id="pattern2"
       patternTransform="translate(305.1031,-2.7082208)" /><clipPath
       id="17e723c63c"><path
         d="m 506.91797,5.613281 h 53.13281 V 58.75 h -53.13281 z m 0,0"
         id="path1" /></clipPath><clipPath
       id="3121b40be9"><path
         d="m 533.48437,5.613281 c -14.67187,0 -26.5664,11.894531 -26.5664,26.566407 0,14.675781 11.89453,26.570312 26.5664,26.570312 14.67188,0 26.56641,-11.894531 26.56641,-26.570312 0,-14.671876 -11.89453,-26.566407 -26.56641,-26.566407 z m 0,0"
         id="path2" /></clipPath><clipPath
       id="1805b582c5"><path
         d="m 614,5.613281 h 53.13672 V 58.75 H 614 Z m 0,0"
         id="path3" /></clipPath><clipPath
       id="c0a6f351fe"><path
         d="M 640.57031,5.613281 C 625.89844,5.613281 614,17.507812 614,32.179688 614,46.855469 625.89844,58.75 640.57031,58.75 c 14.67188,0 26.56641,-11.894531 26.56641,-26.570312 0,-14.671876 -11.89453,-26.566407 -26.56641,-26.566407 z m 0,0"
         id="path4" /></clipPath><pattern
       patternUnits="userSpaceOnUse"
       width="651.09999"
       height="650.91378"
       patternTransform="translate(305.1031,-2.7082208)"
       preserveAspectRatio="xMidYMid"
       id="pattern1"
       style="fill:#000000"
       inkscape:label="pattern1"><g
         id="g1"
         transform="translate(-650.59999,-124.9)"
         style="fill-opacity:1"><g
           id="Layer_1_1_"
           style="fill:#000000;fill-opacity:1">
</g><g
           id="g135"
           style="fill:#000000;fill-opacity:1">
	<path
   class="st0"
   d="m 1016.8,200.6 c 0,0 0,12.4 -6.2,13.9 -6.2,1.5 -20.9,-2.3 -22.4,8.5 -1.5,10.8 -3.9,20.1 8.5,23.2 12.4,3.1 19.3,-6.2 22.4,-11.6 3.1,-5.4 16.2,-16.2 17,-5.4 0.8,10.8 -6.2,13.9 -13.1,20.9 -7,7 -15.4,11.6 -23.9,10 -8.5,-1.5 -22.4,-0.8 -23.9,-19.3 -1.5,-18.5 -2.3,-26.3 3.1,-30.1 5.4,-3.8 17,-6.2 24.7,-10 7.7,-3.8 13.8,-0.1 13.8,-0.1 z"
   id="path1-9"
   style="fill:#000000;fill-opacity:1" />
	<path
   class="st0"
   d="m 1206.5,618.7 c 0,0 0,12.4 -6.2,13.9 -6.2,1.5 -20.9,-2.3 -22.4,8.5 -1.5,10.8 -3.9,20.1 8.5,23.2 12.4,3.1 19.3,-6.2 22.4,-11.6 3.1,-5.4 16.2,-16.2 17,-5.4 0.8,10.8 -6.2,13.9 -13.1,20.9 -6.9,7 -15.4,11.6 -23.9,10 -8.5,-1.5 -22.4,-0.8 -23.9,-19.3 -1.5,-18.5 -2.3,-26.3 3.1,-30.1 5.4,-3.9 17,-6.2 24.7,-10 7.7,-3.8 13.8,-0.1 13.8,-0.1 z"
   id="path2-9"
   style="fill:#000000;fill-opacity:1" />
	<path
   class="st0"
   d="m 1055.4,264.7 c 0,0 1.5,7 -7,14.7 -8.5,7.7 -9.2,12.4 -12.3,19.3 -3.1,7 -10.9,11.6 -8.6,20.1 2.3,8.5 16.2,12.4 23.2,9.3 7,-3.1 13.1,-10.8 13.1,-20.9 0,-10 -1.5,-11.6 -1.5,-20.9 0,-9.3 7.7,-4.6 8.5,6.2 0.8,10.8 7,14.7 7,21.6 0,7 -8.5,14.7 -16.2,17.8 -7.7,3.1 -18.5,10.8 -27.8,10.8 -9.3,0 -25.5,-7.7 -24.7,-19.3 0.8,-11.6 5.4,-10.8 7,-22.4 1.5,-11.6 2.3,-10 13.9,-18.5 11.6,-8.5 9.3,-21 20.1,-22.1 10.7,-1.1 5.3,4.3 5.3,4.3 z"
   id="path3-4"
   style="fill:#000000;fill-opacity:1" />
	<path
   class="st0"
   d="m 919.2,580 c 0,0 6.2,-3.6 16.1,2.2 9.9,5.8 14.5,5 22.1,5.9 7.6,0.9 14.3,6.9 21.7,2.1 7.4,-4.8 6.9,-19.2 1.9,-24.9 -5,-5.7 -14.3,-9.3 -23.8,-6.3 -9.5,3 -10.6,5 -19.4,7.7 -8.8,2.7 -6.7,-6 3.3,-10 10.1,-4 11.9,-11 18.5,-13.1 6.6,-2.1 16.6,3.7 21.8,10.1 5.2,6.4 15.9,14.4 18.7,23.3 2.8,8.9 0.3,26.6 -11,29.4 -11.3,2.7 -11.9,-1.9 -23.5,0.1 -11.6,2 -10.3,0.8 -21.9,-7.7 -11.6,-8.5 -22.8,-2.5 -27.1,-12.5 -4.2,-9.8 2.6,-6.3 2.6,-6.3 z"
   id="path4-5"
   style="fill:#000000;fill-opacity:1" />
	<path
   class="st0"
   d="m 940.3,269.3 c 0,0 3.1,5.4 13.1,7 10,1.5 10.8,-4.6 11.6,5.4 0.8,10 -7,23.2 2.3,25.5 9.3,2.3 21.6,-14.7 15.4,-23.2 -6.2,-8.5 -12.4,-7.7 -17,-14.7 -4.5,-6.9 -23,-12.3 -25.4,0 z"
   id="path5-3"
   style="fill:#000000;fill-opacity:1" />
	<path
   class="st0"
   d="m 929.5,306.4 c 0,0 3.1,21.6 8.5,24.7 5.4,3.1 35.5,-0.8 32.4,-13.9 -3.1,-13.1 -18.5,-17 -27,-17 -8.5,0 -13.9,6.2 -13.9,6.2 z"
   id="path6-0"
   style="fill:#000000;fill-opacity:1" />
	<path
   class="st0"
   d="m 972,348.1 c 0,0 -12.4,13.9 -6.2,23.2 6.2,9.3 32.9,14.7 39.2,7 6.3,-7.7 12.5,-13.1 6.3,-19.3 -6.1,-6.2 -38.5,-16.3 -39.3,-10.9 z"
   id="path7"
   style="fill:#000000;fill-opacity:1" />
	<path
   class="st0"
   d="m 922.6,260.4 c 0,0 -5.4,5.9 -2.3,17.5 3.1,11.6 -10,12.4 -15.4,12.4 -5.4,0 -10.8,-3.9 -8.5,-17.8 2.2,-14 24.6,-22.7 26.2,-12.1 z"
   id="path8-7"
   style="fill:#000000;fill-opacity:1" />
	<path
   class="st0"
   d="m 863.1,245.4 c 0,0 -8.5,11.5 -16.2,16.6 -7.7,5.1 -16.2,6.2 -16.2,-8.3 0,-14.5 -6.2,-6.7 -7,-18.3 -0.8,-11.6 8.5,-10.8 13.9,-18.5 5.4,-7.7 10.8,8.5 17,13.9 6.2,5.4 11.6,3.9 11.6,-8.5 0,-12.4 -9.3,-13.9 -17,-20.1 -7.7,-6.2 -22.4,-14.7 -28.6,-10.8 -6.2,3.9 -7.7,30.1 -12.4,40.9 -4.6,10.8 4.6,18.5 4.6,29.7 0,11.2 7,22.1 17.8,19 10.8,-3.1 4.6,-9 20.9,-8 16.2,1 18.5,-0.5 20.1,-15.2 1.6,-14.7 -4.7,-17.1 -8.5,-12.4 z"
   id="path9"
   style="fill:#000000;fill-opacity:1" />
	<path
   class="st0"
   d="m 1234,591.2 c 0,0 3.1,-11.6 7.5,-17.8 4.4,-6.2 10.5,-9.3 14.6,2.4 4.2,11.7 6.6,3.8 10.5,13 3.9,9.2 -3.3,11.1 -5.2,18.8 -1.9,7.7 -10.6,-4 -16.8,-6.8 -6.2,-2.8 -9.9,0 -6.3,10 3.5,10 11,8.8 18.6,11.8 7.6,3 21.1,6 24.7,1.2 3.6,-4.8 -2.8,-26.5 -2.4,-36.6 0.4,-10.1 -8.8,-13.8 -12,-22.9 -3.2,-9.1 -11.7,-16 -18.9,-10.6 -7.3,5.4 -0.9,8.5 -13.4,12 -12.5,3.5 -13.8,5.4 -10.8,17.7 3,12.3 8.4,12.6 9.9,7.8 z"
   id="path10-9"
   style="fill:#000000;fill-opacity:1" />
	<path
   class="st0"
   d="m 984.3,679.4 c 0,0 8.6,-9.3 15.8,-12.9 7.3,-3.7 14.8,-3.8 13.4,8.8 -1.4,12.7 4.8,6.5 4.3,16.7 -0.5,10.2 -8.5,8.6 -14,14.9 -5.5,6.2 -8.6,-8.5 -13.5,-13.9 -4.9,-5.3 -9.8,-4.5 -11,6.3 -1.2,10.8 6.8,13.1 12.9,19.3 6.2,6.2 18.2,15.1 24,12.3 5.8,-2.8 9.7,-25.7 14.8,-34.7 5.1,-9 -2.3,-16.6 -1.2,-26.5 1.1,-9.9 -3.9,-20 -13.7,-18.4 -9.8,1.6 -4.9,7.4 -19.1,5 -14.1,-2.5 -16.3,-1.4 -19.1,11.4 -2.7,12.7 2.6,15.4 6.4,11.7 z"
   id="path11"
   style="fill:#000000;fill-opacity:1" />
	<path
   class="st0"
   d="m 1053.1,368.2 c 0,0 7,5.4 3.1,18.5 -3.9,13.1 10,13.9 20.1,10 10,-3.9 4.6,-9.3 10.8,-21.6 6.2,-12.4 -5.4,-23.2 -20.1,-21.6 -14.7,1.6 -13.9,14.7 -13.9,14.7 z"
   id="path12-4"
   style="fill:#000000;fill-opacity:1" />
	<path
   class="st0"
   d="m 982.8,411.5 c 0,0 1.5,10.8 16.2,8.5 14.7,-2.3 30.1,-2.3 32.4,-13.9 2.3,-11.6 0,-17.8 -6.2,-17.8 -6.2,0 -10.8,8.5 -23.2,13.1 -12.4,4.6 -23,-1.5 -19.2,10.1 z"
   id="path13"
   style="fill:#000000;fill-opacity:1" />
	<path
   class="st0"
   d="m 919.5,386 c 0,0 7,7 17.8,5.4 10.8,-1.5 10.8,-10.8 9.3,-18.5 -1.5,-7.7 -6.2,-13.1 -14.7,-10.8 -8.6,2.3 -17.1,13.8 -12.4,23.9 z"
   id="path14-5"
   style="fill:#000000;fill-opacity:1" />
	<path
   class="st0"
   d="m 1180.9,435.5 c 0,0 4.9,4.9 12.5,3.8 7.6,-1.1 7.6,-7.6 6.5,-13 -1.1,-5.4 -4.3,-9.2 -10.3,-7.6 -6,1.6 -12,9.8 -8.7,16.8 z"
   id="path15"
   style="fill:#000000;fill-opacity:1" />
	<path
   class="st0"
   d="m 881.5,490.9 c 0,0 4.9,4.9 12.5,3.8 7.6,-1.1 7.6,-7.6 6.5,-13 -1.1,-5.4 -4.3,-9.2 -10.3,-7.6 -6,1.6 -12,9.8 -8.7,16.8 z"
   id="path16"
   style="fill:#000000;fill-opacity:1" />
	<path
   class="st0"
   d="m 763.5,672.7 c 0,0 4.9,4.9 12.5,3.8 7.6,-1.1 7.6,-7.6 6.5,-13 -1.1,-5.4 -4.3,-9.2 -10.3,-7.6 -6,1.6 -11.9,9.8 -8.7,16.8 z"
   id="path17"
   style="fill:#000000;fill-opacity:1" />
	<path
   class="st0"
   d="m 1147.2,373.4 c 0,0 4.2,4.2 10.6,3.2 6.4,-1 6.5,-6.5 5.6,-11.1 -0.9,-4.6 -3.7,-7.9 -8.8,-6.5 -5.1,1.4 -10.2,8.4 -7.4,14.4 z"
   id="path18"
   style="fill:#000000;fill-opacity:1" />
	<path
   class="st0"
   d="m 997.4,286.9 c 0,0 4,4 10.3,3.1 6.3,-0.9 6.3,-6.3 5.4,-10.8 -0.9,-4.5 -3.6,-7.6 -8.5,-6.3 -4.9,1.3 -9.9,8.2 -7.2,14 z"
   id="path19"
   style="fill:#000000;fill-opacity:1" />
	<path
   class="st0"
   d="m 903.3,406.1 c -0.2,2.4 3.1,13.9 17.8,18.5 14.7,4.6 17,0.8 30.1,3.9 13.1,3.1 19.3,-11.6 14.7,-20.1 -4.6,-8.5 -23.9,7 -31.7,-0.8 -7.8,-7.8 -29.4,-18.5 -30.9,-1.5 z"
   id="path20"
   style="fill:#000000;fill-opacity:1" />
	<path
   class="st0"
   d="m 915.6,463.2 c 0,0 3.1,9.3 20.9,9.3 17.8,0 20.9,-4.6 28.6,-4.6 7.7,0 3.1,-20.9 -16.2,-22.4 -19.4,-1.6 -36.4,10 -33.3,17.7 z"
   id="path21"
   style="fill:#000000;fill-opacity:1" />
	<path
   class="st0"
   d="m 912.5,489.5 c 0,0 -0.1,0.6 -0.3,1.6 -0.8,5.1 -3.3,21.1 -3.1,30 0.3,10.8 16.5,21.6 26.1,18.5 9.7,-3.1 6.6,-16.2 19.7,-15.4 13.1,0.8 23.1,9.3 27,-7.7 3.9,-17 3.9,-36.3 -8.1,-36.3 -12,0 -2.7,25.3 -12.8,30 -10.1,4.7 -15.4,6.3 -23.2,-10.7 -7.5,-17 -26,-17 -25.3,-10 z"
   id="path22"
   style="fill:#000000;fill-opacity:1" />
	<path
   class="st0"
   d="m 836,305.6 c 0,0 10,9.3 -7.7,22.4 -17.8,13.1 -4.6,12.4 0,17.8 4.6,5.4 8.5,21.6 12.4,27 3.9,5.4 28.6,-4.6 31.7,2.3 3.1,7 -15.4,32.2 -30.9,25 -15.4,-7.2 -14.7,-11.1 -23.2,-19.6 -8.5,-8.5 -6.2,-17.8 -7.7,-27 -1.5,-9.3 -13.9,-9.3 -8.5,-27 5.4,-17.7 31.9,-24.1 33.9,-20.9 z"
   id="path23"
   style="fill:#000000;fill-opacity:1" />
	<path
   class="st0"
   d="m 849.2,310.5 c 0,0 -2.3,7.5 7,14.5 9.3,7 15.4,1.5 15.4,13.1 0,11.6 -6.2,17 2.3,21.6 8.5,4.6 18.2,-9.3 12.6,-25.5 -5.6,-16.2 -11,-8.5 -11.8,-21.6 -0.8,-13.1 -25.5,-12.7 -25.5,-2.1 z"
   id="path24"
   style="fill:#000000;fill-opacity:1" />
	<path
   class="st0"
   d="m 1004.5,448.7 c 0,0 -2.6,12.1 4.5,21.7 7.1,9.6 3.8,4.5 16.6,8.9 12.8,4.5 13.4,8.3 20.4,8.3 7,0 11.5,-5.1 13.4,-10.9 1.9,-5.7 10.9,-7.7 0,-12.8 -10.9,-5.1 -19.2,1.9 -16,-10.2 3.2,-12.1 22.3,-5.7 16.6,-14.7 -5.7,-9 -20.1,-7 -25.7,-2.6 -5.6,4.4 -1.8,5.7 -13.3,8.3 -11.3,2.7 -13.3,-6.3 -16.5,4 z"
   id="path25"
   style="fill:#000000;fill-opacity:1" />
	<path
   class="st0"
   d="m 778,748.8 c 0,0 2.7,8.2 10.3,11.5 7.6,3.3 3.9,1.4 13.1,-0.4 9.3,-1.8 11,0.3 15.2,-2.1 4.2,-2.4 5.2,-7.1 4.3,-11.2 -0.8,-4.1 3.9,-8.4 -4.4,-7.7 -8.3,0.7 -10.9,7.8 -13.2,-0.6 -2.3,-8.4 11.5,-11.2 4.9,-14.6 -6.6,-3.4 -14.6,2.8 -16.4,7.4 -1.8,4.6 0.9,4.1 -5.1,9.6 -6,5.6 -10.3,0.9 -8.7,8.1 z"
   id="path26"
   style="fill:#000000;fill-opacity:1" />
	<path
   class="st0"
   d="m 1098.7,411.5 c 0,0 1.5,2.4 8.5,17.4 7,15 1.5,20.4 -0.8,26.6 -2.3,6.2 -1.5,17 3.1,21.6 4.6,4.6 22.4,12.4 23.2,-2.3 0.8,-14.7 -7.7,-7.7 -6.2,-23.9 1.5,-16.2 7.7,-8.5 1.5,-24.7 -6.2,-16.2 -10,-15.9 -7.7,-21.9 2.3,-6 12.4,-16 18.5,-11.4 6.2,4.6 13.9,11.3 14.7,4.1 0.8,-7.2 -12.4,-18.8 -21.6,-16.5 -9.3,2.4 -40.2,16.9 -33.2,31 z"
   id="path27"
   style="fill:#000000;fill-opacity:1" />
	<path
   class="st0"
   d="m 1155.1,416.1 c 0,0 -10,9.3 -6.2,20.1 3.8,10.8 15.4,1.5 20.1,-13.9 4.7,-15.4 -10.8,-15.5 -13.9,-6.2 z"
   id="path28"
   style="fill:#000000;fill-opacity:1" />
	<path
   class="st0"
   d="m 848.8,703.5 c 0,0 -10,9.3 -6.2,20.1 3.9,10.8 15.4,1.5 20.1,-13.9 4.6,-15.5 -10.9,-15.5 -13.9,-6.2 z"
   id="path29"
   style="fill:#000000;fill-opacity:1" />
	<path
   class="st0"
   d="m 1150.4,460.2 c 0,0 -14.7,22.4 -13.1,28.5 1.5,6.2 26.3,9.3 28.6,-3.1 2.3,-12.4 -7,-29.2 -15.5,-25.4 z"
   id="path30"
   style="fill:#000000;fill-opacity:1" />
	<path
   class="st0"
   d="m 1127.3,280.2 c 0,0 10,3.9 5.4,11.6 -4.6,7.7 -9.5,0.8 -7.1,13.1 2.4,12.4 -3.8,17.2 -3.8,23.7 0,6.5 4.8,13.4 12,11.9 7.2,-1.5 12.7,1.5 12.7,-14.7 0,-16.2 0.8,-28.8 -0.8,-41 -1.5,-12.3 -7.7,-17.7 -1.5,-20 6.2,-2.3 20.9,6.2 19.3,17.8 -1.5,11.6 -9.3,13.9 -7.7,30.9 1.5,17 5.4,14.7 4.6,21.6 -0.8,7 -34.8,28.6 -41.7,23.9 -7,-4.6 -12.4,-16.2 -10.8,-33.2 1.5,-17 3.1,-4.6 1.5,-23.2 -1.4,-18.6 17.9,-22.4 17.9,-22.4 z"
   id="path31"
   style="fill:#000000;fill-opacity:1" />
	<path
   class="st0"
   d="m 815.7,624.7 c 0,0 -9.2,-5.5 -3.3,-12.3 5.9,-6.8 9.5,0.9 9.2,-11.7 -0.3,-12.6 6.7,-16.3 7.8,-22.7 1.1,-6.4 -2.4,-14 -9.8,-13.8 -7.4,0.3 -12.2,-3.7 -15,12.3 -2.8,16 -5.7,28.2 -6.3,40.6 -0.6,12.3 4.6,18.7 -1.9,19.9 -6.5,1.2 -19.5,-9.7 -16,-20.8 3.5,-11.1 11.5,-12.1 12.9,-29.1 1.4,-17 -2.8,-15.4 -0.8,-22.1 2,-6.7 39.2,-22.2 45.2,-16.4 6,5.8 9.4,18.1 4.9,34.6 -4.5,16.5 -3.8,4 -5.5,22.6 -1.7,18.6 -21.4,18.9 -21.4,18.9 z"
   id="path32"
   style="fill:#000000;fill-opacity:1" />
	<path
   class="st0"
   d="m 1178,357.5 c 0,0 -3.1,14.4 4.1,18.6 7.2,4.2 13.4,-0.9 15.4,8.3 2,9.2 2.1,21.9 10.3,25.3 8.2,3.5 13.4,-2.5 24.7,0 11.3,2.5 19.6,1.4 19.6,-11.5 0,-12.9 -4.1,-19.2 -8.2,-34.1 -4.1,-14.8 -19.6,-5.8 -19.6,0 0,5.8 11.3,8 12.4,17.7 1.1,9.7 -8.2,17.9 -16.5,13.8 -8.2,-4.1 -13.4,-9.4 -13.4,-19.7 0,-10.2 -7.2,-24.4 -14.4,-26.1 -7.2,-1.4 -14.4,7.7 -14.4,7.7 z"
   id="path33"
   style="fill:#000000;fill-opacity:1" />
	<path
   class="st0"
   d="m 1185.7,293.8 c 0,0 -3.6,3.6 2.6,8 6.2,4.4 4.1,9 3.6,13.2 -0.5,4.1 6.2,14.4 12.9,14.4 6.7,0 12.4,-1 18.5,1 6.2,2.1 23.2,-4.1 25.2,-11.3 2.1,-7.2 1,-8.8 5.1,-15.4 4.1,-6.7 -3.1,-13.3 -6.2,-22.1 -3.1,-8.8 -0.5,-16.5 -8.8,-14.4 -8.2,2.1 -14.4,9.8 -11.3,16.5 3.1,6.7 13.9,12.4 14.9,19.1 1,6.7 -11.6,19.1 -22.6,17 -11,-2.1 -15,-5.2 -15,-12.1 0,-6.9 1.5,-7.9 5.7,-17.7 4.2,-9.8 1.5,-11.8 -5.1,-11.8 -6.6,0 -19.5,15.6 -19.5,15.6 z"
   id="path34"
   style="fill:#000000;fill-opacity:1" />
	<path
   class="st0"
   d="m 1183.7,249.5 c 0,0 -3.6,4.1 1.5,9.3 5.1,5.1 13.4,8.2 16,4.1 2.6,-4.1 7.2,-5.3 14.9,-5.7 7.7,-0.4 17,-8.2 23.7,-17.9 6.7,-9.8 9.8,-10.3 7.2,-20.1 -2.6,-9.8 -18.5,-14.9 -21.6,-12.9 -3.1,2.1 10.3,19.1 6.7,27.3 -3.6,8.2 -10.8,14.9 -15.4,14.9 -4.6,0 -20.6,-7.2 -25.2,-6.2 -4.7,1 -7.8,7.2 -7.8,7.2 z"
   id="path35"
   style="fill:#000000;fill-opacity:1" />
	<path
   class="st0"
   d="m 1163.7,222.7 c 0,0 -2.2,18 4.5,20.6 6.7,2.6 13.4,-0.5 14.9,-10.3 1.6,-9.8 -12.6,-19 -19.4,-10.3 z"
   id="path36"
   style="fill:#000000;fill-opacity:1" />
	<path
   class="st0"
   d="m 1187.3,208.3 c 0,0 2.1,5.7 6.2,4.6 4.1,-1 -1,-8.8 10.3,-8.8 11.3,0 16.2,-1 16.1,-8.2 -0.1,-7.2 -18.6,-11.8 -23.8,-8.8 -5.1,3.1 -7.2,11.8 -8.8,14.4 -1.6,2.7 0,6.8 0,6.8 z"
   id="path37"
   style="fill:#000000;fill-opacity:1" />
	<path
   class="st0"
   d="m 1081.7,238.7 c 0,0 -9.3,6.2 -3.9,14.4 5.4,8.2 10,0.5 12.6,10.3 2.6,9.8 1.6,14.4 7.2,14.9 5.6,0.5 10.8,-14.9 17.5,-14.9 6.7,0 22.5,-1.5 20.5,-11.8 -2,-10.3 -7.6,-30.4 -13.3,-24.7 -5.7,5.7 -2.6,25.7 -8.2,28.8 -5.7,3.1 -20.1,5.2 -20.1,-3.6 0.1,-8.8 0.1,-15.5 -12.3,-13.4 z"
   id="path38"
   style="fill:#000000;fill-opacity:1" />
	<path
   class="st0"
   d="m 1084.3,187.2 c 0,0 -9.3,9.8 -1.5,14.9 7.7,5.1 11.3,-2.1 13.9,8.8 2.6,10.8 3.6,11.8 10.3,12.9 6.7,1 3.6,-9.3 0.8,-14.9 -2.8,-5.6 -5.9,-4.6 -5.9,-13.4 -0.1,-8.8 -14.5,-12.6 -17.6,-8.3 z"
   id="path39"
   style="fill:#000000;fill-opacity:1" />
	<path
   class="st0"
   d="m 1067.3,177.4 c 0,0 3.6,7.2 -1,12.9 -4.6,5.7 -16.5,4.8 -14.4,15.5 2.1,10.7 9.3,7.1 14.4,10.7 5.1,3.6 10.3,7.2 6.7,12.9 -3.6,5.7 -17,13.4 -18,3.6 -1,-9.8 3.1,-10.8 -5.1,-16 -8.2,-5.2 -13.8,-2.1 -13.6,-12.9 0.2,-10.8 7.9,-6.2 7.9,-16.5 -0.1,-10.2 21.8,-15.8 23.1,-10.2 z"
   id="path40"
   style="fill:#000000;fill-opacity:1" />
	<path
   class="st0"
   d="m 846,679.5 c 0,0 6.1,-9.3 -2.1,-14.8 -8.2,-5.5 -9.4,3.5 -15.7,-4.5 -6.2,-8 -7.1,-12.6 -12.5,-10.9 -5.4,1.7 -4.1,18 -10.2,20.6 -6.2,2.6 -20.1,10.3 -14.2,19 5.9,8.7 19,24.9 22,17.5 3,-7.4 -7.8,-24.7 -3.8,-29.8 4,-5.1 16.4,-12.7 19.9,-4.6 3.5,8.1 6.1,14.3 16.6,7.5 z"
   id="path41"
   style="fill:#000000;fill-opacity:1" />
	<path
   class="st0"
   d="m 877.4,771.2 c 0,0 4.7,-12.6 -4.5,-14.3 -9.1,-1.7 -9.6,6.3 -16.2,-2.6 -6.6,-8.9 -8,-9.5 -14.5,-7.8 -6.6,1.7 0.3,9.9 5.2,14 4.9,4.1 7.3,1.9 10.7,10 3.4,8 18.2,5.9 19.3,0.7 z"
   id="path42"
   style="fill:#000000;fill-opacity:1" />
	<path
   class="st0"
   d="m 896.9,763.2 c 0,0 -6.1,-5.2 -4.1,-12.2 2,-7 13.3,-10.9 7.1,-20 -6.1,-9.1 -11.3,-2.9 -17.5,-4.2 -6.2,-1.3 -12.3,-2.6 -11.2,-9.2 1.1,-6.6 10.4,-19 15.2,-10.4 4.8,8.6 1.4,11.2 11,12.7 9.6,1.5 13.5,-3.5 17.6,6.5 4.1,10 -4.9,8.8 -0.8,18.3 4,9.4 -13.8,23.2 -17.3,18.5 z"
   id="path43"
   style="fill:#000000;fill-opacity:1" />
	<path
   class="st0"
   d="m 908.1,184.6 c 0,0 -1.5,6.7 5.7,7.2 7.2,0.5 15.4,-4 20.6,-1.5 5.1,2.5 9.3,14.9 8.2,19.5 -1.1,4.6 0,14.4 -16,14.4 -16,0 -20.9,-4.1 -18.7,-13.4 2.2,-9.3 -10.2,-11.1 -12.3,-11.2 -2,-0.1 -10.3,7.4 -7.2,13.4 3.1,6 10.3,7.1 9.8,13.8 -0.5,6.7 -2.1,12.4 6.7,12.9 8.8,0.5 17.5,-6.7 25.7,-5.7 8.2,1 13.4,3 17,-2.3 3.6,-5.4 0,-21.9 3.1,-30.6 3.1,-8.8 0,-18.5 -11.8,-21.9 -11.7,-3.3 -31.3,-0.2 -30.8,5.4 z"
   id="path44"
   style="fill:#000000;fill-opacity:1" />
	<path
   class="st0"
   d="m 960.2,160.9 c 0,0 1,6.2 3.1,15.4 2.1,9.2 4.1,13.4 11.8,11.3 7.7,-2.1 23.2,-6.7 20.1,-12.4 -3.1,-5.7 -13.4,-2.1 -18,-9.3 -4.7,-7 -16.5,-10.1 -17,-5 z"
   id="path45"
   style="fill:#000000;fill-opacity:1" />
	<path
   class="st0"
   d="m 957.1,149.6 c 0,0 3.6,6.7 10.3,2.6 6.7,-4.1 10.3,-9.8 17,-10.3 6.7,-0.5 17.9,0 22.9,6.7 5,6.7 6,14.4 3.4,19.1 -2.6,4.6 -4.1,6.2 -2.6,10.8 1.5,4.6 19.6,-7.2 15.4,-16 -4.1,-8.8 -3.6,-3.6 -5.7,-12.4 -2.1,-8.8 -3.7,-15.4 -20.1,-15.4 -16.4,0 -28.3,3.1 -34.5,4.1 -6.1,1 -9.2,4.6 -6.1,10.8 z"
   id="path46"
   style="fill:#000000;fill-opacity:1" />
	<path
   class="st0"
   d="m 1152.3,549 c 0,0 0.6,-6.9 0.9,-17.5 0.3,-10.5 -0.8,-15.5 -9.7,-15.4 -8.9,0.1 -26.8,0.9 -25,7.9 1.8,7 13.9,5.9 16.9,14.9 3,9 14.9,15.5 16.9,10.1 z"
   id="path47"
   style="fill:#000000;fill-opacity:1" />
	<path
   class="st0"
   d="m 1152.6,562 c 0,0 -2,-8.2 -10.4,-5.6 -8.4,2.6 -13.7,7.8 -21.1,6.5 -7.4,-1.3 -19.3,-4.9 -22.8,-13.4 -3.5,-8.6 -2.6,-17.2 1.5,-21.5 4,-4.3 6.1,-5.5 5.7,-11 -0.4,-5.4 -23,2.5 -21,13 2.1,10.5 2.9,4.9 2.7,14.9 -0.2,10 -0.2,17.6 17.5,22.1 17.7,4.5 31.3,4.4 38.3,4.9 6.9,0.6 11.2,-2.4 9.6,-9.9 z"
   id="path48"
   style="fill:#000000;fill-opacity:1" />
	<path
   class="st0"
   d="m 1129.1,161.4 c 0,0 -11.3,0 -7.2,10.8 4.1,10.8 15.4,10.8 18,20.1 2.6,9.3 4.1,14.9 12.4,15.4 8.2,0.5 16.2,-6.2 14,-11.8 -2.2,-5.7 -14.2,-4.1 -18.2,-8.8 -4,-4.6 -9.7,-13.4 -9.7,-20.1 0,-6.7 6.7,-10.8 16,-10 9.3,0.8 15.4,9.5 14.9,13.6 -0.5,4.1 -3.4,9.8 0.6,13.9 4,4.1 17.4,-4.1 14.8,-11.8 -2.6,-7.7 -11.8,-11.3 -17,-18.5 -5.1,-7.2 -16,-11.3 -24.7,-8.8 -8.8,2.7 -5.7,14 -13.9,16 z"
   id="path49"
   style="fill:#000000;fill-opacity:1" />
	<path
   class="st0"
   d="m 908.8,667.2 c 0,0 -11.3,0 -7.2,10.8 4.1,10.8 15.4,10.8 18,20.1 2.6,9.3 4.1,14.9 12.4,15.4 8.2,0.5 16.2,-6.2 14,-11.8 -2.2,-5.7 -14.2,-4.1 -18.2,-8.8 -4,-4.6 -9.7,-13.4 -9.7,-20.1 0,-6.7 6.7,-10.8 16,-10 9.3,0.8 15.4,9.5 14.9,13.6 -0.5,4.1 -3.4,9.8 0.6,13.9 4,4.1 17.4,-4.1 14.8,-11.8 -2.6,-7.7 -11.8,-11.3 -17,-18.5 -5.1,-7.2 -16,-11.3 -24.7,-8.8 -8.8,2.6 -5.7,14 -13.9,16 z"
   id="path50"
   style="fill:#000000;fill-opacity:1" />
	<path
   class="st0"
   d="m 1058.4,508.4 c 0,0 4.7,2.7 12.4,0.3 7.7,-2.4 8.8,-2 11.8,-7.7 3.1,-5.8 0.4,-14.6 -1.1,-14.6 -1.5,0 -7,7.4 -12.2,10.2 -5.2,2.8 -13.7,8.8 -10.9,11.8 z"
   id="path51"
   style="fill:#000000;fill-opacity:1" />
	<path
   class="st0"
   d="m 1229.1,176.8 c 0,0 6.6,8.6 13.8,7.6 7.2,-0.9 4.6,-2.5 9.8,-6.6 5.1,-4.1 11.1,-4.6 9.1,-8.8 -2,-4.2 -16.9,-0.5 -20.5,2.1 -3.5,2.6 -12.6,1.5 -12.2,5.7 z"
   id="path52"
   style="fill:#000000;fill-opacity:1" />
	<path
   class="st0"
   d="m 1201.7,148.4 c 0,0 3.6,10.3 5.7,16.5 2.1,6.2 20.5,3.1 21.3,-0.5 0.8,-3.6 5.7,-2.6 5.1,-9.3 -0.6,-6.7 -8.4,-12.4 -16.6,-10.8 -8.3,1.6 -15.5,1 -15.5,4.1 z"
   id="path53"
   style="fill:#000000;fill-opacity:1" />
	<path
   class="st0"
   d="m 908.3,618.5 c 0,0 3.6,10.3 5.7,16.5 2.1,6.2 20.5,3.1 21.3,-0.5 0.8,-3.6 5.7,-2.6 5.1,-9.3 -0.6,-6.7 -8.4,-12.4 -16.6,-10.8 -8.3,1.5 -15.5,1 -15.5,4.1 z"
   id="path54"
   style="fill:#000000;fill-opacity:1" />
	<path
   class="st0"
   d="m 1232.1,140.2 c 0,0 5.1,15.6 10.8,16.1 5.7,0.4 7.2,-6.8 13.9,-6.8 6.7,0 6.7,-9.3 0,-9.3 -6.7,0 -24.2,-3.6 -24.7,0 z"
   id="path55"
   style="fill:#000000;fill-opacity:1" />
	<path
   class="st0"
   d="m 774.2,440.7 c 0,0 -5.7,11.2 0,13.3 5.7,2.1 20.1,-2.1 19.1,-8.2 -1,-6.1 -19.1,-5.1 -19.1,-5.1 z"
   id="path56"
   style="fill:#000000;fill-opacity:1" />
	<path
   class="st0"
   d="m 1164.4,698 c 0,0 -5.7,11.2 0,13.3 5.7,2.1 20.1,-2.1 19.1,-8.2 -1.1,-6.2 -19.1,-5.1 -19.1,-5.1 z"
   id="path57"
   style="fill:#000000;fill-opacity:1" />
	<path
   class="st0"
   d="m 969.6,622.6 c 0,0 -5.7,11.2 0,13.3 5.7,2.1 20.1,-2.1 19.1,-8.2 -1,-6.1 -19.1,-5.1 -19.1,-5.1 z"
   id="path58"
   style="fill:#000000;fill-opacity:1" />
	<path
   class="st0"
   d="m 1278.1,756.3 c 0,0 -5.7,11.2 0,13.3 5.7,2.1 20.1,-2.1 19.1,-8.2 -1.1,-6.2 -19.1,-5.1 -19.1,-5.1 z"
   id="path59"
   style="fill:#000000;fill-opacity:1" />
	<path
   class="st0"
   d="m 698,359.6 c 0,0 -2.6,8.9 4.6,11.5 7.2,2.6 23.7,-2.6 23.7,-9.6 0,-7 4.6,-3.3 12.9,-5.4 8.2,-2.1 12.4,-5.7 16.5,0 4.1,5.7 10.8,7.7 11.3,13.9 0.5,6.2 7.7,6.8 8.8,10.4 1,3.5 -4.6,14.4 -5.7,20.5 -1.1,6.1 1.5,12.9 7.7,14.9 6.2,2 23.7,-19.5 18,-31.4 -5.7,-11.9 -11.8,-3.1 -16,-19.1 -4.1,-16 -13.9,-11.3 -18,-22.7 -4.1,-11.3 -25.2,-11.3 -31.9,-9.8 -6.7,1.5 -14.4,4.6 -21.6,8.8 -7.2,4.2 -10.3,18 -10.3,18 z"
   id="path60"
   style="fill:#000000;fill-opacity:1" />
	<path
   class="st0"
   d="m 718.6,399.4 c 0,0 0,10.3 5.1,19.6 5.1,9.3 3.6,9.3 8.8,11.3 5.1,2.1 25.7,-1.5 23.7,-7.7 -2.1,-6.2 -7.6,-6.2 -8.9,-17.5 -1.4,-11.3 -1.4,-16.5 -8.1,-16.7 -6.7,-0.4 -21,5.9 -20.6,11 z"
   id="path61"
   style="fill:#000000;fill-opacity:1" />
	<path
   class="st0"
   d="m 658.9,249 c 0,0 2.1,17 11.3,21.1 9.3,4.1 11.8,-2.6 7.7,-16.5 -4.1,-13.9 -18,-13.4 -19,-4.6 z"
   id="path62"
   style="fill:#000000;fill-opacity:1" />
	<path
   class="st0"
   d="m 1270.4,474.9 c 0,0 -11.7,-2.9 -16.7,2.1 -5,5.1 -1.3,8.4 8.9,9.2 10.1,0.9 13.3,-8.4 7.8,-11.3 z"
   id="path63"
   style="fill:#000000;fill-opacity:1" />
	<path
   class="st0"
   d="m 689,235.9 c 0,0 1.8,6.9 6.9,13.1 5.1,6.2 6.2,13.1 6.2,15.3 0,2.2 12.4,-11.7 11.8,-23 -0.6,-11.3 -7.7,-17 -13.4,-17 -5.7,0 -12.7,3.7 -11.5,11.6 z"
   id="path64"
   style="fill:#000000;fill-opacity:1" />
	<path
   class="st0"
   d="m 738.2,266 c 0,0 1,9.1 10.3,5.3 9.3,-3.8 10.3,-3.8 19.6,-3.8 9.3,0 14.9,-11.8 14.4,-18.5 -0.5,-6.7 -6.2,-6.7 -19.6,-3.6 -13.4,3.1 -25.7,10.8 -24.7,20.6 z"
   id="path65"
   style="fill:#000000;fill-opacity:1" />
	<path
   class="st0"
   d="m 746.4,291.7 c 0,0 -5.1,6.2 6.2,13.9 11.3,7.7 13.9,11.3 20.6,9.8 6.7,-1.5 20.6,-17.5 13.9,-25.2 -6.7,-7.7 -12.3,-1 -20,-2.6 -7.7,-1.6 -21.7,-0.5 -20.7,4.1 z"
   id="path66"
   style="fill:#000000;fill-opacity:1" />
	<path
   class="st0"
   d="m 1238.3,659.8 c 0,0 -1.8,7.4 6.6,7.1 8.4,-0.3 9.2,0 16.5,2.6 7.3,2.7 15.1,-5 16.6,-10.4 1.5,-5.4 -2.9,-7 -14.3,-8.4 -11.5,-1.4 -23.4,1.1 -25.4,9.1 z"
   id="path67"
   style="fill:#000000;fill-opacity:1" />
	<path
   class="st0"
   d="m 1237.4,682.4 c 0,0 -5.8,3.4 0.9,12.7 6.7,9.3 7.7,12.9 13.4,13.6 5.7,0.7 21.2,-7.8 18.2,-15.8 -3,-8 -9.3,-4.3 -15,-7.8 -5.7,-3.5 -17,-6.7 -17.5,-2.7 z"
   id="path68"
   style="fill:#000000;fill-opacity:1" />
	<path
   class="st0"
   d="m 1239.2,531 c 0,0 -3,1.7 0.4,6.6 3.5,4.8 4,6.7 6.9,7 3,0.4 11,-4.1 9.4,-8.2 -1.6,-4.1 -4.8,-2.2 -7.8,-4 -2.8,-1.8 -8.6,-3.4 -8.9,-1.4 z"
   id="path69"
   style="fill:#000000;fill-opacity:1" />
	<path
   class="st0"
   d="m 909.8,332.8 c 0,0 -3.4,0.7 -1.6,6.4 1.8,5.6 1.7,7.6 4.4,8.8 2.7,1.2 11.7,-0.5 11.5,-4.9 -0.2,-4.4 -3.9,-3.6 -6.2,-6.2 -2.2,-2.7 -7.2,-6 -8.1,-4.1 z"
   id="path70"
   style="fill:#000000;fill-opacity:1" />
	<path
   class="st0"
   d="m 927.4,759.2 c 0,0 -3,1.7 0.4,6.6 3.4,4.9 4,6.7 6.9,7 3,0.4 11,-4.1 9.4,-8.2 -1.6,-4.1 -4.8,-2.2 -7.8,-4 -2.8,-1.8 -8.6,-3.4 -8.9,-1.4 z"
   id="path71"
   style="fill:#000000;fill-opacity:1" />
	<path
   class="st0"
   d="m 1106.6,137.7 c 0,0 -3,1.7 0.4,6.6 3.5,4.8 4,6.7 6.9,7 3,0.4 11,-4.1 9.4,-8.2 -1.6,-4.1 -4.8,-2.2 -7.8,-4 -2.9,-1.8 -8.7,-3.4 -8.9,-1.4 z"
   id="path72"
   style="fill:#000000;fill-opacity:1" />
	<path
   class="st0"
   d="m 763.8,567.1 c 0,0 -3,1.7 0.4,6.6 3.5,4.8 4,6.7 6.9,7 3,0.4 11,-4.1 9.4,-8.2 -1.6,-4.1 -4.8,-2.2 -7.8,-4 -2.8,-1.8 -8.6,-3.4 -8.9,-1.4 z"
   id="path73"
   style="fill:#000000;fill-opacity:1" />
	<path
   class="st0"
   d="m 682.1,305.1 c 0,0 7.7,11.8 17,13.9 9.3,2.1 20.1,-13.2 20.1,-17.9 0,-4.7 -3.1,-8.8 -7.2,-12.4 -4.1,-3.6 -15.4,-3.6 -19.1,-1.5 -3.6,2 -12.4,11.2 -10.8,17.9 z"
   id="path74"
   style="fill:#000000;fill-opacity:1" />
	<path
   class="st0"
   d="m 746.4,153.2 c 0,0 -22.1,12.3 -17.5,31.4 4.6,19.1 8.8,24.2 13.4,29.9 4.6,5.7 7.7,4.4 6.7,10.9 -1,6.6 -24.2,5.3 -24.7,0 -0.5,-5.3 7.2,1.9 -0.5,-5.3 -7.7,-7.2 -11.8,-5.1 -10.3,-15.4 1.5,-10.3 11.8,-3.6 3.1,-19 -8.7,-15.4 -7.7,-23.7 5.1,-34 12.9,-10.3 24.7,1.5 24.7,1.5 z"
   id="path75"
   style="fill:#000000;fill-opacity:1" />
	<path
   class="st0"
   d="m 766,156.3 c 0,0 -10.3,9.8 -5.1,14.4 5.1,4.6 17,9.3 18,13.9 1,4.6 -12.4,18 -10.8,25.2 1.6,7.2 7.3,6.7 14.5,1.5 7.2,-5.1 13.8,-19.1 6.4,-33 -7.5,-13.8 -17.8,-24.6 -23,-22 z"
   id="path76"
   style="fill:#000000;fill-opacity:1" />
	<path
   class="st0"
   d="m 825.7,420.3 c 0,0 12.9,8.4 10.8,18.2 -2.1,9.8 -10.3,16 -8.8,24.7 1.5,8.8 -8.9,15.4 -17.8,9.3 -8.9,-6.2 -10.5,-17.5 -6.9,-34 3.7,-16.5 22.7,-18.2 22.7,-18.2 z"
   id="path77"
   style="fill:#000000;fill-opacity:1" />
	<path
   class="st0"
   d="m 853.6,430.9 c 0,0 10.3,9.2 7.7,22.6 -2.6,13.4 -7.7,19.6 -5.7,22.1 2.1,2.6 29.9,-8.2 30.4,-23.7 0.5,-15.5 -9.8,-25.7 -17,-27.8 -7.2,-2.1 -16.5,0.6 -15.4,6.8 z"
   id="path78"
   style="fill:#000000;fill-opacity:1" />
	<path
   class="st0"
   d="m 741.8,453.4 c 0,0 8.8,-2.6 13.4,4.1 4.6,6.7 2.6,9.8 11.3,14.9 8.7,5.1 12.4,3.6 12.4,13.4 0,9.8 -16.5,22.1 -20.1,12.9 -3.6,-9.3 -0.5,-13.9 -6.7,-18.5 -6.2,-4.6 -16.5,-7.7 -18.5,-3.3 -2.1,4.4 -0.5,13.6 1.5,15.7 2.1,2.1 8.2,18 3.6,22.1 -4.6,4.1 -25.7,-5.1 -25.2,-18 0.5,-12.9 3.6,-8 -0.5,-20.7 -4.1,-12.7 9.3,-19.4 15.4,-19.4 6.2,-0.1 13.4,-3.2 13.4,-3.2 z"
   id="path79"
   style="fill:#000000;fill-opacity:1" />
	<path
   class="st0"
   d="m 700.5,428.9 c 0,0 3.2,15.8 -6.1,23.5 -9.3,7.7 -24.2,10.3 -27.8,0 -3.6,-10.3 0.5,-13.4 6.2,-17.5 5.7,-4.1 25.6,-14.1 27.7,-6 z"
   id="path80"
   style="fill:#000000;fill-opacity:1" />
	<path
   class="st0"
   d="m 835.5,490.5 c 0,0 -3.1,17.5 6.2,18 9.3,0.5 18,-13.4 28,-10.3 10,3.1 8.5,23.2 1.3,27.3 -7.2,4.1 -23.2,6.7 -25.7,0.5 -2.6,-6.2 -2.6,-11.3 -7.2,-9.3 -4.6,2.1 -19.6,12.4 -23.7,3.6 -4.1,-8.8 -9.8,-23.7 -0.5,-27.8 9.3,-4 20.1,-8.7 21.6,-2 z"
   id="path81"
   style="fill:#000000;fill-opacity:1" />
	<path
   class="st0"
   d="m 673.7,505.5 c 0,0 -4.5,12.7 5.8,13.6 10.4,0.9 9.5,-3.5 18.2,-6.1 8.7,-2.6 2.6,-17.5 1.7,-21.9 -0.9,-4.4 -12.2,-6.6 -14,-2.2 -1.8,4.4 -11.7,16.6 -11.7,16.6 z"
   id="path82"
   style="fill:#000000;fill-opacity:1" />
	<path
   class="st0"
   d="m 666.1,542.5 c 0,0 -1.5,13.9 3.1,18 4.6,4.1 14.4,-9.3 16.5,-6.2 2.1,3.1 14.9,-0.5 16.5,-6.2 1.5,-5.7 -4.6,-16 -12.4,-16 -7.8,0 -22.7,4.8 -23.7,10.4 z"
   id="path83"
   style="fill:#000000;fill-opacity:1" />
	<path
   class="st0"
   d="m 1073,446.7 c 0,0 -1.1,9.8 2.2,12.7 3.3,2.9 10.2,-6.5 11.6,-4.4 1.5,2.2 10.5,-0.4 11.6,-4.4 1.1,-4 -3.3,-11.2 -8.7,-11.2 -5.4,0 -16,3.3 -16.7,7.3 z"
   id="path84"
   style="fill:#000000;fill-opacity:1" />
	<path
   class="st0"
   d="m 1129.6,618.9 c 0,0 -1.1,9.8 2.2,12.7 3.3,2.9 10.2,-6.5 11.6,-4.4 1.4,2.1 10.5,-0.4 11.6,-4.4 1.1,-4 -3.3,-11.2 -8.7,-11.2 -5.4,0 -16,3.3 -16.7,7.3 z"
   id="path85"
   style="fill:#000000;fill-opacity:1" />
	<path
   class="st0"
   d="m 727.4,534.3 c 0,0 6.3,21.1 19.9,21.1 13.6,0 11.5,-7.7 22.3,-5.1 10.8,2.6 19.6,-17.5 19.6,-26.3 0,-8.8 -19.1,-3.1 -23.7,0.5 -4.6,3.6 -2.6,4.6 -13.4,4.1 -10.8,-0.5 -26.3,-8.7 -24.7,5.7 z"
   id="path86"
   style="fill:#000000;fill-opacity:1" />
	<path
   class="st0"
   d="m 694.4,632.7 c 0,0 -5.7,11.3 0.5,17.5 6.2,6.2 13.9,6.2 21.6,12.9 7.7,6.7 22.7,1.5 26.3,-7.2 3.6,-8.8 -18.1,-14.4 -27.9,-20.1 -9.7,-5.7 -18.5,-9.2 -20.5,-3.1 z"
   id="path87"
   style="fill:#000000;fill-opacity:1" />
	<path
   class="st0"
   d="m 683.2,680.6 c 0,0 -6.8,10.3 6.6,19.1 13.4,8.8 16.5,-3.1 14.9,-11.3 -1.5,-8.4 -20,-12.4 -21.5,-7.8 z"
   id="path88"
   style="fill:#000000;fill-opacity:1" />
	<path
   class="st0"
   d="m 865.4,550.3 c 0,0 4.6,12.4 1.5,21.1 -3.1,8.8 -7.7,10.3 -1.5,17.5 6.2,7.2 27.8,-11.3 28.3,-23.2 0.5,-11.8 -16.5,-24.2 -28.3,-15.4 z"
   id="path89"
   style="fill:#000000;fill-opacity:1" />
	<path
   class="st0"
   d="m 869.8,604.8 c 0,0 0.3,13.4 -5.4,23.2 -5.7,9.8 -10.8,27.5 4.6,32.3 15.4,4.8 24.2,-9.1 23.7,-19.4 -0.5,-10.3 -0.5,-28.3 -6.7,-33.5 -6.2,-5.1 -17.1,-8.2 -16.2,-2.6 z"
   id="path90"
   style="fill:#000000;fill-opacity:1" />
	<path
   class="st0"
   d="m 994.5,499.8 c 0,0 -0.3,3 2.5,8.8 2.8,5.9 -3.8,10.2 3.4,12.4 7.2,2.2 11.9,-11.9 17.2,-13.5 5.3,-1.6 0.3,-15.1 -7.2,-17.2 -7.4,-2.2 -16.8,4.5 -15.9,9.5 z"
   id="path91"
   style="fill:#000000;fill-opacity:1" />
	<path
   class="st0"
   d="m 1029.2,576.8 c 0,0 -9.3,11.6 -6.2,26 3.1,14.4 19.1,-6.7 31.4,-9.8 12.4,-3.1 17,0.3 18.3,-5.5 1.3,-5.8 -5.9,-20.2 -17.2,-21.3 -11.3,-1.1 -13.5,12.4 -26.3,10.6 z"
   id="path92"
   style="fill:#000000;fill-opacity:1" />
	<path
   class="st0"
   d="m 1181.1,534.8 c 0,0 -5.1,18.5 9.8,22.7 14.9,4.1 34.5,-6.7 37.6,-15.4 3.1,-8.8 -9.8,-13.9 -22.7,-12.9 -12.9,1 -25.2,2 -24.7,5.6 z"
   id="path93"
   style="fill:#000000;fill-opacity:1" />
	<path
   class="st0"
   d="m 1190.4,493.4 c 0,0 -1.5,10.6 8.8,11.6 10.3,1 22.7,0 30.9,1.5 8.2,1.5 11.3,-10.8 10.8,-18 -0.5,-7.2 -20.6,-3.6 -21.6,-10.8 -1,-7.2 19.6,-16 16.5,-27.3 -3.1,-11.3 -29.9,-7.2 -36,-3.6 -6.2,3.6 4.1,13.9 3.6,23.7 -0.7,9.7 -15.2,14.4 -13,22.9 z"
   id="path94"
   style="fill:#000000;fill-opacity:1" />
	<path
   class="st0"
   d="m 1280.8,310.4 c 0,0 -11.9,1.4 -12,14.3 -0.2,12.9 -5.6,8 -7.9,17.3 -2.3,9.3 3.1,14.9 7,24.2 3.9,9.3 15.4,9.3 18.5,3.1 3.1,-6.2 -5.8,-24.6 -5.6,-34.3 0.2,-9.8 16,-24 0,-24.6 z"
   id="path95"
   style="fill:#000000;fill-opacity:1" />
	<path
   class="st0"
   d="m 744.8,687.7 c 0,0 -10,-2.3 -12.4,10.1 -2.3,12.4 -10.8,17.8 -7,27 3.9,9.3 20.9,10.8 23.9,5.4 3.1,-5.4 5.4,-7 10.8,-18.5 5.4,-11.5 -15.3,-24 -15.3,-24 z"
   id="path96"
   style="fill:#000000;fill-opacity:1" />
	<path
   class="st0"
   d="m 1064.1,626.7 c 0,0 -20.2,13.3 -21.6,24.4 -1.4,11.2 18.1,4.2 16.1,16.1 -2.1,11.9 5.6,21.6 23,21.6 17.4,0 20.9,-15.4 11.2,-23 -9.7,-7.6 -19.8,1.4 -16.9,-10.5 2.8,-11.9 5.6,-31.4 -11.8,-28.6 z"
   id="path97"
   style="fill:#000000;fill-opacity:1" />
	<path
   class="st0"
   d="m 1088.5,618.3 c 0,0 -7.7,7.8 -2.1,16.1 5.6,8.3 21.6,0.6 26.5,9 4.9,8.4 -2.8,12.6 1.4,28.6 4.2,16.1 14.7,20.1 21.6,10.1 7,-10.1 -0.7,-15.2 -0.7,-24.5 0,-9.3 -4.2,-16.1 -18.8,-31.2 -14.7,-15.1 -21.6,-13.7 -27.9,-8.1 z"
   id="path98"
   style="fill:#000000;fill-opacity:1" />
	<path
   class="st0"
   d="m 1171.3,566.2 c 0,0 -22.4,14.5 -15.4,27.6 7,13.1 20.9,0 32.4,5.4 11.6,5.4 23.6,1.5 26.9,-7 3.3,-8.5 -5.2,-11.6 -19.2,-15.5 -13.9,-3.8 -18.3,-15.5 -24.7,-10.5 z"
   id="path99"
   style="fill:#000000;fill-opacity:1" />
	<path
   class="st0"
   d="m 1114.4,734 c 0,0 5,12.7 17.9,4.6 12.8,-8.1 21.8,-32.9 14.8,-36 -7,-3.1 -27.5,4.3 -29.4,10.9 -1.9,6.6 -3.3,20.5 -3.3,20.5 z"
   id="path100"
   style="fill:#000000;fill-opacity:1" />
	<path
   class="st0"
   d="m 1182.4,725.2 c 0,0 -6.2,8.8 0,14 6.2,5.1 32.7,2 34.9,11.3 2.2,9.3 3.8,16.7 11.5,18.9 7.6,2.2 39.2,-4.4 40.7,-20.6 1.5,-16.2 -16.9,-5.9 -30.9,-10.3 -14,-4.4 -18.8,-9.6 -23.3,-17.6 -4.5,-8 -25.2,-5.2 -32.9,4.3 z"
   id="path101"
   style="fill:#000000;fill-opacity:1" />
	<g
   id="g107"
   style="fill:#000000;fill-opacity:1">
		<path
   class="st0"
   d="m 657.9,605.4 c 10.3,6.2 6.2,11.8 14.9,9.8 8.8,-2.1 5.2,-17.5 1.1,-26.8 -3.6,-8.1 -18.2,-9.9 -23.2,-8.2 v 18.3 c 1.7,2.5 4.1,5 7.2,6.9 z"
   id="path102"
   style="fill:#000000;fill-opacity:1" />
		<path
   class="st0"
   d="m 650.7,199.5 v 33.6 c 3.4,-5.1 6.3,-13.3 9.9,-17.1 6.1,-6.2 14.8,-9.3 20.9,-21.6 6.1,-12.3 4,-34.8 0.4,-44.5 -3.5,-9.7 -14.2,0 -14.2,0 -3.1,4.2 3.9,9 3.9,26.4 -0.1,9.9 -11.4,17.4 -20.9,23.2 z"
   id="path103"
   style="fill:#000000;fill-opacity:1" />
		<path
   class="st0"
   d="m 661,355.1 c 14.4,2.1 13.9,-18.5 11.8,-27.8 -2.1,-9.3 -6.7,-11.8 -12.1,-8.8 -3,1.7 -7.1,3.7 -10.1,6.8 v 23.3 c 2,3.1 5.2,5.7 10.4,6.5 z"
   id="path104"
   style="fill:#000000;fill-opacity:1" />
		<path
   class="st0"
   d="m 663,667.2 c 7.2,-4.1 11.3,-16 9.3,-22.7 -2.1,-6.7 -7.4,-10.3 -11.7,-10.3 -3.2,0 -6.6,10.7 -9.9,18.2 v 28.1 c 4.1,-4.8 8.5,-11.2 12.3,-13.3 z"
   id="path105"
   style="fill:#000000;fill-opacity:1" />
		<path
   class="st0"
   d="m 650.7,135.2 v 21.3 c 2.1,-1 4,-2.3 5.4,-4.6 4.6,-7.7 2.8,-14.4 2.8,-14.4 0,0 -3.5,-1.4 -8.2,-2.3 z"
   id="path106"
   style="fill:#000000;fill-opacity:1" />
		<path
   class="st0"
   d="m 662.5,380.3 c -6.4,1.7 -8.6,3.2 -11.8,3.6 v 12.4 c 8.2,-2.1 14.4,-6.2 18,-1 3.6,5.1 15.4,18.3 18.5,14.3 3.1,-4 2.6,-12.3 -4.1,-22.6 -6.7,-10.3 -10.8,-9.3 -20.6,-6.7 z"
   id="path107"
   style="fill:#000000;fill-opacity:1" />
	</g>
	<path
   class="st0"
   d="m 1267,223.9 c 0,0 -15.9,7.1 -9.7,17.2 6.2,10 16.6,-5.4 16,3.1 -0.6,8.5 -25.1,13.9 -17.5,24.7 7.6,10.8 16.9,4.1 14.6,14 -2.3,9.9 11.6,13.8 13.9,-0.5 2.3,-14.3 -11.6,-6.3 -5.4,-24.6 6.2,-18.2 3.2,-35.6 -11.9,-33.9 z"
   id="path108"
   style="fill:#000000;fill-opacity:1" />
	<path
   class="st0"
   d="m 955.7,743.5 c 0,0 -5.4,0 4.8,9.6 10.2,9.6 16.8,7.2 20.4,13.8 3.6,6.6 15.6,10.2 19.8,8.4 4.2,-1.8 15.6,-23.1 9,-29 -6.6,-5.9 -15.6,-11.2 -21.6,-11.2 -6,0 -2.9,6.6 -15,-0.6 -11.9,-7.2 -17.4,9 -17.4,9 z"
   id="path109"
   style="fill:#000000;fill-opacity:1" />
	<path
   class="st0"
   d="m 698.5,718.6 c 0,0 10.1,-2.9 13,4.1 2.9,6.9 -14.3,13.3 -15.2,22 -1,8.7 -7.5,21.4 -17.8,18 -10.4,-3.5 -3.9,-18 3.6,-22.6 7.5,-4.6 12.1,-9.3 12.1,-13.9 -0.1,-4.7 4.3,-7.6 4.3,-7.6 z"
   id="path110"
   style="fill:#000000;fill-opacity:1" />
	<path
   class="st0"
   d="m 1047.4,151.6 c 0,0 -2.5,7.6 6,9.6 8.5,2.1 9.1,-4.1 18.4,1.5 9.2,5.7 12.8,9.3 20.6,3.6 7.7,-5.7 9.3,-7.5 5.7,-12.5 -3.6,-5 -11.5,2.9 -20.4,0 -9,-2.9 -28.3,-11.3 -30.3,-2.2 z"
   id="path111"
   style="fill:#000000;fill-opacity:1" />
	<path
   class="st0"
   d="m 1088,589.9 c 0,0 -2.5,7.6 6,9.6 8.5,2.1 9.1,-4.1 18.4,1.5 9.2,5.7 12.8,9.3 20.6,3.6 7.7,-5.7 9.3,-7.5 5.7,-12.5 -3.6,-5 -11.5,2.9 -20.4,0 -9.1,-2.9 -28.4,-11.3 -30.3,-2.2 z"
   id="path112"
   style="fill:#000000;fill-opacity:1" />
	<path
   class="st0"
   d="m 863.1,143 c 0,0 -18,-2.4 -17.1,4.6 0.9,7 -1.4,9.7 -6.1,13.6 -4.6,3.9 -3.8,18.9 13.6,22.4 17.3,3.5 33.9,-4.2 35.1,-15.8 1.2,-11.6 -3.9,-11.8 -7.7,-9.4 -3.9,2.4 -9.6,11.3 -17.7,11.7 -8.2,0.4 -11.9,-3.9 -9.7,-8.9 2.2,-5 16.9,-9.3 9.6,-18.2 z"
   id="path113"
   style="fill:#000000;fill-opacity:1" />
	<path
   class="st0"
   d="m 1034.6,563.5 c 0,0 18,-2.2 15.4,-8.7 -2.6,-6.6 -1,-9.7 2.5,-14.6 3.5,-4.9 -1.1,-19.3 -18.7,-18.3 -17.7,1 -31.8,12.6 -30,24.1 1.8,11.5 6.7,10.5 9.8,7.2 3.1,-3.3 6.4,-13.3 14.2,-15.7 7.8,-2.4 12.5,0.8 11.6,6.2 -1,5.3 -14.2,13.1 -4.8,19.8 z"
   id="path114"
   style="fill:#000000;fill-opacity:1" />
	<path
   class="st0"
   d="m 717.1,614.4 c 0,0 12.7,15.6 17.3,9.3 4.6,-6.3 8.5,-6.7 15.2,-6.3 6.7,0.4 17.4,-12.4 6,-28.3 -11.4,-15.9 -30.6,-22.4 -40.3,-13.9 -9.7,8.5 -5.8,12.4 -0.9,13.4 5,1 16.3,-1.9 23.1,4 6.8,5.9 6.7,12.1 1,14.5 -5.5,2.3 -20.6,-5.4 -21.4,7.3 z"
   id="path115"
   style="fill:#000000;fill-opacity:1" />
	<path
   class="st0"
   d="m 900.9,142.6 c 0,0 -3.9,5.8 4.2,12 8.1,6.2 24.7,13.5 30.1,8.1 5.4,-5.4 3.1,-15.4 -3.1,-19.3 -6.2,-3.9 -28.1,-7 -31.2,-0.8 z"
   id="path116"
   style="fill:#000000;fill-opacity:1" />
	<path
   class="st0"
   d="m 790.5,133.8 c 0,0 0.8,5.8 13.5,14.7 12.7,8.9 26.3,4.6 28.6,0 2.3,-4.6 0,-14.1 -5.4,-17.1 -5.4,-3 -37.5,-3.4 -36.7,2.4 z"
   id="path117"
   style="fill:#000000;fill-opacity:1" />
	<g
   id="g123"
   style="fill:#000000;fill-opacity:1">
		<path
   class="st0"
   d="m 1293.9,236.9 c 3.1,1.5 5.5,-0.5 7.7,-3.8 v -33.6 c -7.2,4.3 -13.5,7.7 -13.2,10.4 0.7,6.1 -2.3,23.1 5.5,27 z"
   id="path118"
   style="fill:#000000;fill-opacity:1" />
		<path
   class="st0"
   d="m 1296.4,586.3 c 0,0 1,6.3 5.1,12.2 v -18.3 c -0.7,0.3 -1.3,0.6 -1.5,1 -2,3 -3.6,5.1 -3.6,5.1 z"
   id="path119"
   style="fill:#000000;fill-opacity:1" />
		<path
   class="st0"
   d="m 1301.6,348.6 v -23.3 c -2.4,2.6 -4,6 -3.1,10.7 0,0 -0.4,7 3.1,12.6 z"
   id="path120"
   style="fill:#000000;fill-opacity:1" />
		<path
   class="st0"
   d="m 1301.6,396.3 v -12.4 c -1.7,0.2 -3.7,0.1 -6.7,-0.4 -8.8,-1.5 -15.5,-1.9 -16,-0.5 0,0 -6.2,16.7 -1.5,26.9 4.6,10.2 7.7,15 12.4,10.5 4.6,-4.6 3.6,-22.1 11.8,-24.1 z"
   id="path121"
   style="fill:#000000;fill-opacity:1" />
		<path
   class="st0"
   d="m 1295.4,190.3 c 1.5,-4.1 -3.1,-13.7 -3.9,-23.7 -0.5,-7.1 5.1,-7.6 10,-10.1 v -21.3 c -6.1,-1.2 -14.4,-1.7 -20.1,2.3 -10,7.2 0,12.1 0,25.2 0,13.1 -4.6,19.3 -4.6,31.7 0,12.4 17.1,0 18.6,-4.1 z"
   id="path122"
   style="fill:#000000;fill-opacity:1" />
		<path
   class="st0"
   d="m 1301.6,652.4 c -1.1,2.5 -2.2,4.7 -3.3,6 -4.4,5.1 -8.7,2 -9,4.6 0,0 -3.1,18 2.6,22.7 2.7,2.2 6.1,-0.9 9.8,-5.2 z"
   id="path123"
   style="fill:#000000;fill-opacity:1" />
	</g>
	<path
   class="st0"
   d="m 1184.1,775.8 c -0.5,-1.6 -1.4,-3.4 -2.8,-5.4 -8.5,-12.4 -39.4,-11.6 -41.7,-3.1 0,0 0.1,3.9 2.6,8.5 z"
   id="path124"
   style="fill:#000000;fill-opacity:1" />
	<path
   class="st0"
   d="m 1151.7,134.3 c 11.8,6.8 20.6,11.8 24.7,6.6 3.4,-4.3 10.5,-7.8 7.7,-16 h -41.8 c 1.7,3.1 4.6,6.6 9.4,9.4 z"
   id="path125"
   style="fill:#000000;fill-opacity:1" />
	<g
   id="g128"
   style="fill:#000000;fill-opacity:1">
		<path
   class="st0"
   d="m 663.3,511.1 c 0,-12.4 -1.5,-26.3 -10.8,-24 -0.6,0.2 -1.2,0.5 -1.8,0.9 v 41.1 c 7.2,-4.1 12.6,-11 12.6,-18 z"
   id="path126"
   style="fill:#000000;fill-opacity:1" />
		<path
   class="st0"
   d="m 681,723.3 c -3.9,-9.8 -13.1,-14.1 -18.5,-16.2 -2.5,-1 -7.3,-1 -11.8,-0.9 v 27.7 c 5,2.5 10.4,3.9 15.7,3.5 10,-0.7 18.5,-4.2 14.6,-14.1 z"
   id="path127"
   style="fill:#000000;fill-opacity:1" />
		<path
   class="st0"
   d="m 650.7,474.2 c 6,-4 9.1,-14.9 8.8,-21.4 -0.3,-4.7 -4,-5.8 -8.8,-7.3 z"
   id="path128"
   style="fill:#000000;fill-opacity:1" />
	</g>
	<g
   id="g131"
   style="fill:#000000;fill-opacity:1">
		<path
   class="st0"
   d="m 1301.6,706.3 c -5.5,0.2 -10.6,0.9 -10.6,0.9 0,0 -9.3,13.1 -1.5,21 3.6,3.6 7.7,3.6 12.1,5.9 z"
   id="path129"
   style="fill:#000000;fill-opacity:1" />
		<path
   class="st0"
   d="m 1264.5,465.8 c 9.3,0 18.5,-13.4 21.1,-6.7 2.6,6.7 -1,14.4 9.3,16.5 2.5,0.5 4.8,-0.1 6.7,-1.4 v -28.7 c -3.9,-1.2 -8.4,-2.8 -12.4,-7 -8.8,-9.3 -29.4,-9.1 -34.3,12.2 0,0 0.3,15.1 9.6,15.1 z"
   id="path130"
   style="fill:#000000;fill-opacity:1" />
		<path
   class="st0"
   d="m 1280.3,508.4 c 0,0 -3.2,-13 -15.6,-5.5 -12.4,7.4 3.3,25.7 17.9,29.3 6.4,1.6 13.2,0.1 18.9,-3.1 V 488 c -7.5,5.5 -8.8,30.9 -21.2,20.4 z"
   id="path131"
   style="fill:#000000;fill-opacity:1" />
	</g>
	<path
   class="st0"
   d="m 753,762.8 c -9.1,-5.7 -6.1,-2.9 -17.7,-9.8 -11.6,-6.9 -30.7,13.9 -30.7,13.9 0,0 -2.1,5.2 3,8.9 H 766 c -0.3,-4.1 -6.7,-9.1 -13,-13 z"
   id="path132"
   style="fill:#000000;fill-opacity:1" />
	<path
   class="st0"
   d="m 1052.4,124.9 c 6.5,5.9 11.1,10.3 19.7,14.1 11.8,5.1 16.1,-2 18.3,-13.4 0,-0.2 0.1,-0.5 0.2,-0.7 0,0 -38.2,0 -38.2,0 z"
   id="path133"
   style="fill:#000000;fill-opacity:1" />
	<path
   class="st0"
   d="m 1081.2,734.3 c -7.7,-5.6 -0.5,-9.2 -1.5,-17.5 -1,-8.3 -15.4,-11.2 -15.4,-11.2 0,0 -11.3,3 -12.6,10.2 -1.4,7.3 8.8,19.6 18.1,23.6 9.4,4.1 12.2,10.9 12.7,20.1 0.5,9.2 -10.8,14.4 -19.3,9.6 -8.5,-4.8 -6,-16.1 -11.3,-18.4 -5.3,-2.3 -19.8,8.2 -7.8,17.9 3.2,2.6 5.8,4.9 8.2,7.1 h 38.2 c 2.4,-10.8 9.6,-13.2 9.7,-22 0.2,-8.8 -11.3,-13.8 -19,-19.4 z"
   id="path134"
   style="fill:#000000;fill-opacity:1" />
	<path
   class="st0"
   d="m 707.6,124.9 c 2.4,1.8 6.4,8.7 12.9,9.1 20.5,1.2 32.5,5.5 41.7,1.2 2.8,-1.3 3.9,-8.5 3.8,-10.3 z"
   id="path135"
   style="fill:#000000;fill-opacity:1" />
</g></g></pattern></defs><g
     inkscape:label="Layer 1"
     inkscape:groupmode="layer"
     id="layer1"
     transform="translate(-80.011709,-2.6272607)"><g
       id="ced77c146a"
       transform="matrix(0.28049091,0,0,0.28049091,58.151219,1.0527864)"
       style="fill:#780116;fill-opacity:1"><g
         style="fill:#780116;fill-opacity:1"
         id="g6"><g
           transform="translate(62.452163,469.9337)"
           id="g5"
           style="fill:#780116;fill-opacity:1"><path
             style="fill:#780116;fill-opacity:1;stroke:none"
             d="m 99.96875,-59.984375 c 0,13.335937 0.42578,23.65625 1.28125,30.96875 0.86328,7.304687 3.33594,12.996094 7.42188,17.078125 4.08203,4.085938 10.42578,8.0625 19.03125,11.9375 H 15.484375 c 9.03125,-3.875 15.476563,-7.851562 19.34375,-11.9375 3.875,-4.082031 6.238281,-9.5625 7.09375,-16.4375 0.863281,-6.882812 1.296875,-16.773438 1.296875,-29.671875 V -311.51562 c 0,-13.33204 -0.433594,-23.64844 -1.296875,-30.95313 -0.855469,-7.3125 -3.21875,-13.00781 -7.09375,-17.09375 -3.867187,-4.09375 -10.3125,-8.07031 -19.34375,-11.9375 H 141.25 c 30.09375,0 56.85937,3.98047 80.29687,11.9375 23.4375,7.94922 41.92579,19.125 55.46875,33.53125 13.53907,14.40625 20.3125,31.5 20.3125,51.28125 0,19.77344 -5.26562,38.04297 -15.79687,54.8125 -10.53125,16.77344 -25.26172,30.42969 -44.1875,40.96875 -18.91797,10.53125 -41.27734,17.08594 -67.07813,19.65625 15.47657,0.86719 30.52344,5.60156 45.14063,14.20313 14.625,8.59375 28.0625,19.55859 40.3125,32.89062 12.25781,13.324219 22.04687,27.945312 29.35937,43.859375 15.47657,32.679687 29.66407,57.828125 42.5625,75.453125 12.90625,17.625 26.23438,29.015625 39.98438,34.171875 13.75781,5.164063 29.23828,5.597656 46.4375,1.296875 0,0 -3.98047,2.6875 -11.9375,8.0625 -7.94922,5.375 -20.94922,8.0625 -39,8.0625 -29.67969,0 -55.91406,-10.429688 -78.70313,-31.28125 -22.78125,-20.855469 -41.69921,-46.328125 -56.75,-76.421875 -16.77343,-32.675781 -31.17968,-56.753905 -43.21875,-72.234375 -12.03125,-15.47656 -22.5625,-25.58203 -31.59375,-30.3125 -9.03125,-4.72656 -17.41796,-7.09375 -25.15624,-7.09375 H 99.96875 Z m 54.17187,-299.906245 c -10.75,0 -20.53125,0.43359 -29.34374,1.29687 -8.8125,0.85547 -17.08985,2.78906 -24.82813,5.79688 v 182.53125 h 38.04687 c 30.53125,0 55.25391,-8.59766 74.17188,-25.79688 18.92578,-17.20703 27.3125,-43.4375 25.15625,-78.6875 -1.71875,-27.09375 -9.89063,-48.05469 -24.51563,-62.89062 -14.61718,-14.83204 -34.17968,-22.25 -58.6875,-22.25 z m 0,0"
             id="path5" /></g></g><g
         style="fill:#780116;fill-opacity:1"
         id="g8"><g
           transform="translate(404.28449,469.9337)"
           id="g7"
           style="fill:#780116;fill-opacity:1"><path
             style="fill:#780116;fill-opacity:1;stroke:none"
             d="m 94.8125,-313.45312 c 0,0 0,4.83984 0,14.51562 0,9.66797 0,22.02734 0,37.07813 0,15.05468 0.101562,31.17968 0.3125,48.375 0.21875,17.19921 0.328125,33.43359 0.328125,48.70312 0,15.26172 0,27.94531 0,38.04687 0,10.10547 0,15.58594 0,16.4375 0,29.242192 9.781255,51.710942 29.343755,67.406255 19.56249,15.699219 44.39453,23.546875 74.49999,23.546875 20.20704,0 38.375,-3.546875 54.5,-10.640625 16.125,-7.101563 29.01954,-17.316406 38.6875,-30.640625 C 302.16016,-73.957031 307,-90.515625 307,-110.29688 c 0,-1.28125 0,-6.97265 0,-17.07812 0,-10.10156 0,-22.78516 0,-38.04687 0,-15.26954 0.10937,-31.28907 0.32812,-48.0625 0.21875,-16.76954 0.32813,-32.57032 0.32813,-47.40625 0,-14.83204 0,-26.97657 0,-36.4375 0,-9.45704 0,-14.1875 0,-14.1875 0,-13.33204 -0.86719,-23.64844 -2.59375,-30.95313 -1.71875,-7.3125 -4.83594,-13.00781 -9.34375,-17.09375 -4.51172,-4.09375 -11.5,-8.07031 -20.96875,-11.9375 h 75.46875 c -8.60547,3.4375 -15.27344,7.19922 -20,11.28125 -4.73047,4.08594 -7.85156,9.67969 -9.35938,16.78125 -1.5,7.09375 -2.25,17.08984 -2.25,29.98438 v 203.15624 c 0,32.687505 -11.93359,59.246099 -35.79687,79.67188 C 258.94531,-10.207031 224.66016,0 179.95312,0 135.66016,0 100.9375,-10.207031 75.78125,-30.625 50.625,-51.050781 38.046875,-77.609375 38.046875,-110.29688 v -201.21874 c 0,-13.33204 -0.433594,-23.64844 -1.296875,-30.95313 -0.855469,-7.3125 -3.21875,-13.00781 -7.09375,-17.09375 -3.867188,-4.09375 -10.3125,-8.07031 -19.34375,-11.9375 h 112.23438 c -8.60547,3.4375 -14.94922,7.19922 -19.03125,11.28125 -4.085942,4.08594 -6.558599,9.67969 -7.42188,16.78125 -0.855469,7.09375 -1.28125,17.08984 -1.28125,29.98438 z m 0,0"
             id="path6" /></g></g><g
         style="fill:#780116;fill-opacity:1"
         id="g10"><g
           transform="translate(764.82089,469.9337)"
           id="g9"
           style="fill:#780116;fill-opacity:1"><path
             style="fill:#780116;fill-opacity:1;stroke:none"
             d="m 214.78125,-11.609375 c 42.5625,0 76.09766,-10.316406 100.60937,-30.953125 v -63.85938 c 0,-13.32031 -0.43359,-23.64062 -1.29687,-30.95312 -0.85547,-7.3125 -3.21875,-13.11328 -7.09375,-17.40625 -3.86719,-4.30078 -10.3125,-8.39062 -19.34375,-12.26562 H 399.875 c -9.02344,3.875 -15.46875,7.85546 -19.34375,11.9375 -3.86719,4.08593 -6.23047,9.57031 -7.09375,16.45312 -0.86719,6.875 -1.29688,16.76172 -1.29688,29.65625 v 59.34375 c -11.17968,11.605469 -25.90234,21.171875 -44.17187,28.703125 -18.27344,7.523437 -38.26563,13.109375 -59.98438,16.765625 -21.71875,3.65625 -43.54296,5.484375 -65.46875,5.484375 -37.83593,0 -70.83593,-8.382813 -98.99999,-25.15625 C 75.347656,-40.628906 53.414062,-63.203125 37.71875,-91.578125 22.03125,-119.96094 14.1875,-151.35156 14.1875,-185.75 c 0,-34.39453 8.273438,-65.78125 24.828125,-94.15625 16.5625,-28.38281 39.351563,-50.96094 68.375005,-67.73437 29.01953,-16.76954 62.45312,-25.15625 100.29687,-25.15625 15.90625,0 31.59766,2.15234 47.07812,6.45312 15.47657,4.30469 28.80469,9.46484 39.98438,15.48438 11.61328,6.02343 21.71875,9.57031 30.3125,10.64062 8.60156,1.07422 16.12891,-3.11719 22.57812,-12.57812 2.14454,-2.58204 3.75391,-5.26954 4.82813,-8.0625 1.08203,-2.78907 1.625,-4.1875 1.625,-4.1875 l 7.09375,123.1875 c -16.34375,-37.84375 -39.78125,-66.97266 -70.3125,-87.39063 -30.52344,-20.42578 -62.55469,-30.64062 -96.09375,-30.64062 -25.80469,0 -48.16406,7.85156 -67.07812,23.54687 -18.91797,15.6875 -33.105474,36.64844 -42.562505,62.875 -9.460937,26.23047 -13.117187,55.46875 -10.96875,87.71875 2.582031,31.82422 10.109375,60.96094 22.578125,87.40625 12.46875,26.4375 28.80469,47.507812 49.01562,63.203125 20.20704,15.6875 43.21094,23.53125 69.01563,23.53125 z m 0,0"
             id="path8" /></g></g><g
         style="fill:#780116;fill-opacity:1"
         id="g12"><g
           transform="translate(1175.0198,469.9337)"
           id="g11"
           style="fill:#780116;fill-opacity:1"><path
             style="fill:#780116;fill-opacity:1;stroke:none"
             d="m 163.82812,-10.96875 c 21.92579,0 39.76954,-3.757812 53.53125,-11.28125 13.75782,-7.519531 25.90625,-19.664062 36.4375,-36.4375 10.53125,-16.769531 21.81641,-38.703125 33.85938,-65.79688 L 256.04687,0 H 15.484375 c 9.03125,-3.875 15.476563,-7.851562 19.34375,-11.9375 3.875,-4.082031 6.238281,-9.5625 7.09375,-16.4375 0.863281,-6.882812 1.296875,-16.773438 1.296875,-29.671875 V -311.51562 c 0,-13.33204 -0.433594,-23.64844 -1.296875,-30.95313 -0.855469,-7.3125 -3.21875,-13.00781 -7.09375,-17.09375 -3.867187,-4.09375 -10.3125,-8.07031 -19.34375,-11.9375 H 250.89062 l 5.15625,99.96875 c -9.02343,-24.50781 -17.1875,-43.10156 -24.5,-55.78125 -7.3125,-12.6875 -16.34375,-21.39453 -27.09375,-26.125 -10.75,-4.72656 -26.01562,-7.09375 -45.79687,-7.09375 h -58.6875 v 169.625 h 50.95312 c 13.75782,0 23.97266,-1.07031 30.64063,-3.21875 6.66406,-2.15625 11.71875,-7.20703 15.15625,-15.15625 3.4375,-7.95703 7.51953,-20.32031 12.25,-37.09375 v 121.89062 c -4.73047,-16.75781 -8.8125,-29.00781 -12.25,-36.74999 -3.4375,-7.75 -8.49219,-12.69532 -15.15625,-14.84375 -6.66797,-2.14454 -16.88281,-3.21875 -30.64063,-3.21875 H 99.96875 V -52.25 c 0,13.761719 1.92969,23.871094 5.79688,30.328125 3.875,6.449219 10.7539,10.101563 20.64062,10.953125 z m 0,0"
             id="path10" /></g></g><g
         clip-rule="nonzero"
         clip-path="url(#17e723c63c)"
         id="g14"
         style="fill:#780116;fill-opacity:1"><g
           clip-rule="nonzero"
           clip-path="url(#3121b40be9)"
           id="g13"
           style="fill:#780116;fill-opacity:1"><path
             style="fill:#780116;fill-opacity:1;fill-rule:nonzero;stroke:none"
             d="m 506.91797,5.613281 h 53.13281 V 58.75 h -53.13281 z m 0,0"
             id="path12" /></g></g><g
         clip-rule="nonzero"
         clip-path="url(#1805b582c5)"
         id="g16"
         style="fill:#780116;fill-opacity:1"><g
           clip-rule="nonzero"
           clip-path="url(#c0a6f351fe)"
           id="g15"
           style="fill:#780116;fill-opacity:1"><path
             style="fill:#780116;fill-opacity:1;fill-rule:nonzero;stroke:none"
             d="m 614,5.613281 h 53.13672 V 58.75 H 614 Z m 0,0"
             id="path14" /></g></g></g></g><g
     inkscape:label="Layer 1 copy"
     inkscape:groupmode="layer"
     id="g162"
     transform="translate(-80.011709,-2.6272607)"><g
       id="g161"
       transform="matrix(0.28049091,0,0,0.28049091,58.151219,1.0527864)"
       style="fill:url(#pattern2);fill-opacity:1"><g
         style="fill:url(#pattern2);fill-opacity:1"
         id="g150"><g
           transform="translate(62.452163,469.9337)"
           id="g149"
           style="fill:url(#pattern2);fill-opacity:1"><path
             style="fill:url(#pattern2);fill-opacity:1;stroke:none"
             d="m 99.96875,-59.984375 c 0,13.335937 0.42578,23.65625 1.28125,30.96875 0.86328,7.304687 3.33594,12.996094 7.42188,17.078125 4.08203,4.085938 10.42578,8.0625 19.03125,11.9375 H 15.484375 c 9.03125,-3.875 15.476563,-7.851562 19.34375,-11.9375 3.875,-4.082031 6.238281,-9.5625 7.09375,-16.4375 0.863281,-6.882812 1.296875,-16.773438 1.296875,-29.671875 V -311.51562 c 0,-13.33204 -0.433594,-23.64844 -1.296875,-30.95313 -0.855469,-7.3125 -3.21875,-13.00781 -7.09375,-17.09375 -3.867187,-4.09375 -10.3125,-8.07031 -19.34375,-11.9375 H 141.25 c 30.09375,0 56.85937,3.98047 80.29687,11.9375 23.4375,7.94922 41.92579,19.125 55.46875,33.53125 13.53907,14.40625 20.3125,31.5 20.3125,51.28125 0,19.77344 -5.26562,38.04297 -15.79687,54.8125 -10.53125,16.77344 -25.26172,30.42969 -44.1875,40.96875 -18.91797,10.53125 -41.27734,17.08594 -67.07813,19.65625 15.47657,0.86719 30.52344,5.60156 45.14063,14.20313 14.625,8.59375 28.0625,19.55859 40.3125,32.89062 12.25781,13.324219 22.04687,27.945312 29.35937,43.859375 15.47657,32.679687 29.66407,57.828125 42.5625,75.453125 12.90625,17.625 26.23438,29.015625 39.98438,34.171875 13.75781,5.164063 29.23828,5.597656 46.4375,1.296875 0,0 -3.98047,2.6875 -11.9375,8.0625 -7.94922,5.375 -20.94922,8.0625 -39,8.0625 -29.67969,0 -55.91406,-10.429688 -78.70313,-31.28125 -22.78125,-20.855469 -41.69921,-46.328125 -56.75,-76.421875 -16.77343,-32.675781 -31.17968,-56.753905 -43.21875,-72.234375 -12.03125,-15.47656 -22.5625,-25.58203 -31.59375,-30.3125 -9.03125,-4.72656 -17.41796,-7.09375 -25.15624,-7.09375 H 99.96875 Z m 54.17187,-299.906245 c -10.75,0 -20.53125,0.43359 -29.34374,1.29687 -8.8125,0.85547 -17.08985,2.78906 -24.82813,5.79688 v 182.53125 h 38.04687 c 30.53125,0 55.25391,-8.59766 74.17188,-25.79688 18.92578,-17.20703 27.3125,-43.4375 25.15625,-78.6875 -1.71875,-27.09375 -9.89063,-48.05469 -24.51563,-62.89062 -14.61718,-14.83204 -34.17968,-22.25 -58.6875,-22.25 z m 0,0"
             id="path149" /></g></g><g
         style="fill:url(#pattern2);fill-opacity:1"
         id="g152"><g
           transform="translate(404.28449,469.9337)"
           id="g151"
           style="fill:url(#pattern2);fill-opacity:1"><path
             style="fill:url(#pattern2);fill-opacity:1;stroke:none"
             d="m 94.8125,-313.45312 c 0,0 0,4.83984 0,14.51562 0,9.66797 0,22.02734 0,37.07813 0,15.05468 0.101562,31.17968 0.3125,48.375 0.21875,17.19921 0.328125,33.43359 0.328125,48.70312 0,15.26172 0,27.94531 0,38.04687 0,10.10547 0,15.58594 0,16.4375 0,29.242192 9.781255,51.710942 29.343755,67.406255 19.56249,15.699219 44.39453,23.546875 74.49999,23.546875 20.20704,0 38.375,-3.546875 54.5,-10.640625 16.125,-7.101563 29.01954,-17.316406 38.6875,-30.640625 C 302.16016,-73.957031 307,-90.515625 307,-110.29688 c 0,-1.28125 0,-6.97265 0,-17.07812 0,-10.10156 0,-22.78516 0,-38.04687 0,-15.26954 0.10937,-31.28907 0.32812,-48.0625 0.21875,-16.76954 0.32813,-32.57032 0.32813,-47.40625 0,-14.83204 0,-26.97657 0,-36.4375 0,-9.45704 0,-14.1875 0,-14.1875 0,-13.33204 -0.86719,-23.64844 -2.59375,-30.95313 -1.71875,-7.3125 -4.83594,-13.00781 -9.34375,-17.09375 -4.51172,-4.09375 -11.5,-8.07031 -20.96875,-11.9375 h 75.46875 c -8.60547,3.4375 -15.27344,7.19922 -20,11.28125 -4.73047,4.08594 -7.85156,9.67969 -9.35938,16.78125 -1.5,7.09375 -2.25,17.08984 -2.25,29.98438 v 203.15624 c 0,32.687505 -11.93359,59.246099 -35.79687,79.67188 C 258.94531,-10.207031 224.66016,0 179.95312,0 135.66016,0 100.9375,-10.207031 75.78125,-30.625 50.625,-51.050781 38.046875,-77.609375 38.046875,-110.29688 v -201.21874 c 0,-13.33204 -0.433594,-23.64844 -1.296875,-30.95313 -0.855469,-7.3125 -3.21875,-13.00781 -7.09375,-17.09375 -3.867188,-4.09375 -10.3125,-8.07031 -19.34375,-11.9375 h 112.23438 c -8.60547,3.4375 -14.94922,7.19922 -19.03125,11.28125 -4.085942,4.08594 -6.558599,9.67969 -7.42188,16.78125 -0.855469,7.09375 -1.28125,17.08984 -1.28125,29.98438 z m 0,0"
             id="path150" /></g></g><g
         style="fill:url(#pattern2);fill-opacity:1"
         id="g154"><g
           transform="translate(764.82089,469.9337)"
           id="g153"
           style="fill:url(#pattern2);fill-opacity:1"><path
             style="fill:url(#pattern2);fill-opacity:1;stroke:none"
             d="m 214.78125,-11.609375 c 42.5625,0 76.09766,-10.316406 100.60937,-30.953125 v -63.85938 c 0,-13.32031 -0.43359,-23.64062 -1.29687,-30.95312 -0.85547,-7.3125 -3.21875,-13.11328 -7.09375,-17.40625 -3.86719,-4.30078 -10.3125,-8.39062 -19.34375,-12.26562 H 399.875 c -9.02344,3.875 -15.46875,7.85546 -19.34375,11.9375 -3.86719,4.08593 -6.23047,9.57031 -7.09375,16.45312 -0.86719,6.875 -1.29688,16.76172 -1.29688,29.65625 v 59.34375 c -11.17968,11.605469 -25.90234,21.171875 -44.17187,28.703125 -18.27344,7.523437 -38.26563,13.109375 -59.98438,16.765625 -21.71875,3.65625 -43.54296,5.484375 -65.46875,5.484375 -37.83593,0 -70.83593,-8.382813 -98.99999,-25.15625 C 75.347656,-40.628906 53.414062,-63.203125 37.71875,-91.578125 22.03125,-119.96094 14.1875,-151.35156 14.1875,-185.75 c 0,-34.39453 8.273438,-65.78125 24.828125,-94.15625 16.5625,-28.38281 39.351563,-50.96094 68.375005,-67.73437 29.01953,-16.76954 62.45312,-25.15625 100.29687,-25.15625 15.90625,0 31.59766,2.15234 47.07812,6.45312 15.47657,4.30469 28.80469,9.46484 39.98438,15.48438 11.61328,6.02343 21.71875,9.57031 30.3125,10.64062 8.60156,1.07422 16.12891,-3.11719 22.57812,-12.57812 2.14454,-2.58204 3.75391,-5.26954 4.82813,-8.0625 1.08203,-2.78907 1.625,-4.1875 1.625,-4.1875 l 7.09375,123.1875 c -16.34375,-37.84375 -39.78125,-66.97266 -70.3125,-87.39063 -30.52344,-20.42578 -62.55469,-30.64062 -96.09375,-30.64062 -25.80469,0 -48.16406,7.85156 -67.07812,23.54687 -18.91797,15.6875 -33.105474,36.64844 -42.562505,62.875 -9.460937,26.23047 -13.117187,55.46875 -10.96875,87.71875 2.582031,31.82422 10.109375,60.96094 22.578125,87.40625 12.46875,26.4375 28.80469,47.507812 49.01562,63.203125 20.20704,15.6875 43.21094,23.53125 69.01563,23.53125 z m 0,0"
             id="path152" /></g></g><g
         style="fill:url(#pattern2);fill-opacity:1"
         id="g156"><g
           transform="translate(1175.0198,469.9337)"
           id="g155"
           style="fill:url(#pattern2);fill-opacity:1"><path
             style="fill:url(#pattern2);fill-opacity:1;stroke:none"
             d="m 163.82812,-10.96875 c 21.92579,0 39.76954,-3.757812 53.53125,-11.28125 13.75782,-7.519531 25.90625,-19.664062 36.4375,-36.4375 10.53125,-16.769531 21.81641,-38.703125 33.85938,-65.79688 L 256.04687,0 H 15.484375 c 9.03125,-3.875 15.476563,-7.851562 19.34375,-11.9375 3.875,-4.082031 6.238281,-9.5625 7.09375,-16.4375 0.863281,-6.882812 1.296875,-16.773438 1.296875,-29.671875 V -311.51562 c 0,-13.33204 -0.433594,-23.64844 -1.296875,-30.95313 -0.855469,-7.3125 -3.21875,-13.00781 -7.09375,-17.09375 -3.867187,-4.09375 -10.3125,-8.07031 -19.34375,-11.9375 H 250.89062 l 5.15625,99.96875 c -9.02343,-24.50781 -17.1875,-43.10156 -24.5,-55.78125 -7.3125,-12.6875 -16.34375,-21.39453 -27.09375,-26.125 -10.75,-4.72656 -26.01562,-7.09375 -45.79687,-7.09375 h -58.6875 v 169.625 h 50.95312 c 13.75782,0 23.97266,-1.07031 30.64063,-3.21875 6.66406,-2.15625 11.71875,-7.20703 15.15625,-15.15625 3.4375,-7.95703 7.51953,-20.32031 12.25,-37.09375 v 121.89062 c -4.73047,-16.75781 -8.8125,-29.00781 -12.25,-36.74999 -3.4375,-7.75 -8.49219,-12.69532 -15.15625,-14.84375 -6.66797,-2.14454 -16.88281,-3.21875 -30.64063,-3.21875 H 99.96875 V -52.25 c 0,13.761719 1.92969,23.871094 5.79688,30.328125 3.875,6.449219 10.7539,10.101563 20.64062,10.953125 z m 0,0"
             id="path154" /></g></g><g
         clip-rule="nonzero"
         clip-path="url(#17e723c63c)"
         id="g158"
         style="fill:url(#pattern2);fill-opacity:1"><g
           clip-rule="nonzero"
           clip-path="url(#3121b40be9)"
           id="g157"
           style="fill:url(#pattern2);fill-opacity:1"><path
             style="fill:url(#pattern2);fill-opacity:1;fill-rule:nonzero;stroke:none"
             d="m 506.91797,5.613281 h 53.13281 V 58.75 h -53.13281 z m 0,0"
             id="path156" /></g></g><g
         clip-rule="nonzero"
         clip-path="url(#1805b582c5)"
         id="g160"
         style="fill:url(#pattern2);fill-opacity:1"><g
           clip-rule="nonzero"
           clip-path="url(#c0a6f351fe)"
           id="g159"
           style="fill:url(#pattern2);fill-opacity:1"><path
             style="fill:url(#pattern2);fill-opacity:1;fill-rule:nonzero;stroke:none"
             d="m 614,5.613281 h 53.13672 V 58.75 H 614 Z m 0,0"
             id="path158" /></g></g></g></g><style
     type="text/css"
     id="style1">
	.st0{fill:#1B0E00;}
</style></svg>
